HIERARCHY
ROOT Hips
{
  OFFSET 196.326 95.9168 97.7182
  CHANNELS 6 Xposition Yposition Zposition Zrotation Xrotation Yrotation
  JOINT LeftUpLeg
  {
    OFFSET 8.64259 1.95398 -2.38835
    CHANNELS 3 Zrotation Xrotation Yrotation
    JOINT LeftLeg
    {
      OFFSET 43.7702 0 0
      CHANNELS 3 Zrotation Xrotation Yrotation
      JOINT LeftFoot
      {
        OFFSET 40.6238 0 0
        CHANNELS 3 Zrotation Xrotation Yrotation
        JOINT LeftToeBase
        {
          OFFSET 12.7242 0 0
          CHANNELS 3 Zrotation Xrotation Yrotation
          End Site
          {
            OFFSET 0 0 0
          }
        }
      }
    }
  }
  JOINT RightUpLeg
  {
    OFFSET -8.2249 1.95398 -2.59336
    CHANNELS 3 Zrotation Xrotation Yrotation
    JOINT RightLeg
    {
      OFFSET 43.5653 0 0
      CHANNELS 3 Zrotation Xrotation Yrotation
      JOINT RightFoot
      {
        OFFSET 40.6238 0 0
        CHANNELS 3 Zrotation Xrotation Yrotation
        JOINT RightToeBase
        {
          OFFSET 12.7242 0 0
          CHANNELS 3 Zrotation Xrotation Yrotation
          End Site
          {
            OFFSET 0 0 0
          }
        }
      }
    }
  }
  JOINT Spine
  {
    OFFSET 0.165834 0.87714 6.61349
    CHANNELS 3 Zrotation Xrotation Yrotation
    JOINT Spine1
    {
      OFFSET 7.38963 1.71661e-005 0
      CHANNELS 3 Zrotation Xrotation Yrotation
      JOINT Spine2
      {
        OFFSET 11.9445 1.14441e-005 0
        CHANNELS 3 Zrotation Xrotation Yrotation
        JOINT Spine3
        {
          OFFSET 14.7254 4.19617e-005 0
          CHANNELS 3 Zrotation Xrotation Yrotation
          JOINT Spine4
          {
            OFFSET 10.9679 0 0
            CHANNELS 3 Zrotation Xrotation Yrotation
            JOINT RightShoulder
            {
              OFFSET 2.46616 -1.6653 3.69651
              CHANNELS 3 Zrotation Xrotation Yrotation
              JOINT RightArm
              {
                OFFSET 13.0012 0 0
                CHANNELS 3 Zrotation Xrotation Yrotation
                JOINT RightForeArm
                {
                  OFFSET 28.7848 1.52588e-005 0
                  CHANNELS 3 Zrotation Xrotation Yrotation
                  JOINT RightHand
                  {
                    OFFSET 26.5688 1.52588e-005 0
                    CHANNELS 3 Zrotation Xrotation Yrotation
                    End Site
                    {
                      OFFSET 0 0 0
                    }
                  }
                }
              }
            }
            JOINT LeftShoulder
            {
              OFFSET 2.38034 -1.29275 -3.75231
              CHANNELS 3 Zrotation Xrotation Yrotation
              JOINT LeftArm
              {
                OFFSET 16.3182 6.10351e-005 0
                CHANNELS 3 Zrotation Xrotation Yrotation
                JOINT LeftForeArm
                {
                  OFFSET 27.0901 0 0
                  CHANNELS 3 Zrotation Xrotation Yrotation
                  JOINT LeftHand
                  {
                    OFFSET 24.5451 1.52588e-005 0
                    CHANNELS 3 Zrotation Xrotation Yrotation
                    End Site
                    {
                      OFFSET 0 0 0
                    }
                  }
                }
              }
            }
            JOINT Neck
            {
              OFFSET 5.0226 -0.0266342 0
              CHANNELS 3 Zrotation Xrotation Yrotation
              JOINT Head
              {
                OFFSET 6.69363 2.86102e-005 0
                CHANNELS 3 Zrotation Xrotation Yrotation
                End Site
                {
                  OFFSET 0 0 0
                }
              }
            }
          }
        }
      }
    }
  }
}
MOTION
Frames:	7
Frame Time:	0.0416667
26.7076 93.1207 -304.754 17.8999 -39.9177 28.4326 179.799 51.155 89.1916 -20.7597 17.8157 1.27944 76.7618 13.1031 7.07289 29.5155 2.76616 -24.0305 -165.274 55.8893 82.4549 152.01 19.1356 -168.983 30.3075 -4.84998 -8.76776 33.1194 -86.1166 169.981 -4.6259 0.0142259 -93.3012 26.8089 -10.7824 -3.54966 15.1796 -10.928 -3.06669 -7.59831 -9.21566 -6.64558 12.4143 -9.21567 -6.6456 74.3921 -36.9576 -131.182 36.771 -8.09286 -21.6125 5.07803 -29.9321 -0.00353962 -34.7356 16.0159 -54.7306 -65.8267 -43.4616 116.654 -48.9761 14.4811 16.7983 5.7084 22.4291 -33.5477 26.6798 3.17314 8.1785 -10.0254 20.3043 19.6153 -5.11478 19.242 -4.93727 
26.5622 94.3796 -305.393 11.742 -49.4615 24.9728 -177.957 44.1715 93.5392 -20.1846 14.6383 0.960491 76.7448 12.836 7.41734 25.1163 0.00451139 -27.826 -177.002 48.1629 93.2654 160.508 33.8947 -176.943 32.8908 -3.02968 -3.89644 -9.98522 -85.6983 124.482 -3.77048 1.00253 -93.3137 24.7748 -9.17262 -4.31913 13.1307 -9.35361 -3.90869 -9.53434 -7.45179 -6.88248 10.4783 -7.45178 -6.88247 74.9756 -37.2887 -130.032 36.7401 -6.26743 -20.8394 3.48139 -31.9715 -0.003616 -34.3685 15.5666 -54.2579 -68.7446 -44.7092 111.711 -46.9149 14.6691 16.7527 8.20246 24.5067 -35.7665 13.2484 1.51506 7.35504 -5.40734 18.8141 17.5332 -10.757 17.2295 -2.77092 
26.5762 95.3008 -306.829 21.62 -52.2232 30.7698 -177.833 36.6236 89.5939 -13.203 16.4285 0.970031 72.8212 12.2149 7.27254 25.5038 0.615805 -30.9303 -177.684 44.7112 89.1784 157.218 50.3678 -179.03 24.3298 -2.56528 -0.384811 24.3142 -43.7467 144.495 -3.99239 1.39891 -92.6591 24.05 -9.21374 -2.97703 12.4095 -9.3357 -2.56551 -10.3042 -7.8922 -5.6209 9.70844 -7.89221 -5.62091 74.7548 -38.2066 -129.832 36.4776 -1.73895 -17.9261 -0.169467 -31.7298 -0.00360653 -32.6922 14.7307 -54.7289 -72.8082 -46.63 105.008 -44.4109 12.4576 16.4306 8.88113 22.3133 -35.9548 12.6969 1.63074 8.6144 -8.00787 16.8477 18.8486 -5.53158 15.4718 -5.09478 
26.3819 95.956 -308.144 17.199 -61.9377 27.2725 -175.459 29.948 92.1245 -14.3621 11.2454 0.789611 75.1845 12.7102 5.76308 22.5349 -1.07685 -32.5362 177.525 36.7145 93.0358 -125.193 84.3683 103.484 26.1094 1.41236 6.05193 28.926 -11.5643 119.675 -3.13202 2.41149 -92.4903 21.9684 -7.46038 -3.29049 10.3155 -7.59787 -2.95755 -12.3106 -6.12707 -5.38444 7.70209 -6.12707 -5.38443 74.4612 -39.1541 -129.737 35.9457 0.205368 -14.2746 -1.96729 -27.4777 -0.00345754 -28.2685 12.6635 -55.2271 -77.8922 -48.109 96.9893 -42.7755 10.6012 15.8786 8.29563 18.7374 -35.4904 12.3221 1.67488 9.2504 -6.65477 14.1912 18.4556 -5.56998 12.6114 -5.06974 
26.5052 96.1783 -309.494 23.0369 -67.1163 31.8627 -175.15 24.4638 91.3395 -13.9102 7.97828 1.30678 77.9432 13.3627 1.78331 15.3268 -5.88827 -31.6616 176.005 30.1937 92.8115 -32.8541 54.6695 12.1428 37.369 5.0942 7.70438 41.1866 5.41007 79.7324 -2.88506 3.2045 -92.1122 20.4109 -6.77613 -2.81586 8.75528 -6.89343 -2.51379 -13.8604 -5.61676 -4.72563 6.15224 -5.61677 -4.72564 74.2166 -39.8479 -129.714 35.458 0.229626 -10.0427 -0.842953 -24.2428 -0.00336417 -25.4912 10.872 -53.3631 -83.3354 -49.6047 88.7142 -41.0956 9.61923 14.7834 7.88859 16.3945 -35.3483 13.0534 1.68012 8.64848 -1.95561 11.8729 17.6564 -8.31631 9.68853 -4.64189 
26.6957 96.2941 -310.361 26.521 -70.3954 34.8649 -174.726 20.6146 91.1293 -12.6922 4.84225 1.53556 80.7336 14.436 -1.66906 11.0057 -7.9399 -34.4434 175.836 24.7972 93.1104 -25.8418 31.8561 7.69178 49.2067 4.67649 3.5173 46.425 5.78086 48.8195 -2.54465 3.8811 -91.836 19.0662 -5.96028 -2.52158 7.40697 -6.06543 -2.25607 -15.1893 -4.92706 -4.19856 4.82338 -4.92707 -4.19856 74.0562 -42.1566 -128.637 34.0674 0.535103 -6.14727 -2.1724 -25.0063 -0.00338478 -21.5547 7.42538 -46.1205 -88.4357 -49.8922 81.047 -39.9739 9.3149 12.9172 7.60091 14.9828 -35.4641 14.5178 1.68892 7.53799 1.28828 9.75931 15.2376 -7.66313 7.39959 -4.45519 
27.0906 96.1365 -310.889 32.823 -72.3586 40.7595 -175.071 17.4714 90.6564 -11.8474 2.59828 2.08753 84.0097 16.3043 -4.72337 3.57473 -12.3315 -35.3941 176.047 22.6349 93.1159 -26.7654 23.7088 6.00663 56.3809 2.21153 1.57185 46.1082 4.15727 33.9104 -2.26151 4.56278 -91.4885 17.7156 -5.22092 -2.05219 6.0539 -5.30616 -1.8199 -16.5316 -4.36277 -3.52816 3.48108 -4.36278 -3.52817 75.1355 -44.7493 -125.591 33.684 0.658318 -2.85666 -4.11422 -24.5963 -0.0033736 -15.5555 3.90585 -37.3508 -92.4894 -48.7795 74.7059 -38.8068 10.2704 10.5787 7.59819 14.616 -36.2191 13.0017 1.3338 6.16743 4.99053 7.12617 9.85627 -7.47774 5.22626 -1.77852 
